<svg xmlns="http://www.w3.org/2000/svg" width="481pt" height="291pt" viewBox="0 0 481 291" version="1.1" xmlns:xlink="http://www.w3.org/1999/xlink">
  <g id="surface2" transform="matrix(1,0,0,1,0,0)" data-tpl_matrix="1,0,0,1,0,0">
    <path style="stroke:none;fill-rule:evenodd;fill:rgb(61.568627%,84.313725%,82.745098%);fill-opacity:1" d="M 329 79.101562 L 294.398438 79.101562 L 294.398438 73.101562 L 329 73.101562 L 329 79.101562 "/>
    <path style="stroke:none;fill-rule:evenodd;fill:rgb(61.568627%,84.313725%,82.745098%);fill-opacity:1" d="M 329 119.101562 L 293.398438 119.101562 L 293.398438 113.101562 L 329 113.101562 L 329 119.101562 "/>
    <path style="stroke:none;fill-rule:evenodd;fill:rgb(30.980392%,76.078431%,72.549020%);fill-opacity:1" d="M 347.898438 99.101562 L 298.101562 99.101562 L 298.101562 93.101562 L 347.898438 93.101562 L 347.898438 99.101562 "/>
    <path style="stroke:none;fill-rule:evenodd;fill:rgb(61.568627%,84.313725%,82.745098%);fill-opacity:1" d="M 189.898438 79.101562 L 154.300781 79.101562 L 154.300781 73.101562 L 189.898438 73.101562 L 189.898438 79.101562 "/>
    <path style="stroke:none;fill-rule:evenodd;fill:rgb(61.568627%,84.313725%,82.745098%);fill-opacity:1" d="M 189.898438 119.101562 L 154.300781 119.101562 L 154.300781 113.101562 L 189.898438 113.101562 L 189.898438 119.101562 "/>
    <path style="stroke:none;fill-rule:evenodd;fill:rgb(30.980392%,76.078431%,72.549020%);fill-opacity:1" d="M 183.898438 99.101562 L 135.398438 99.101562 L 135.398438 93.101562 L 183.898438 93.101562 L 183.898438 99.101562 "/>
    <path style="stroke:none;fill-rule:evenodd;fill:rgb(30.980392%,76.078431%,72.549020%);fill-opacity:1" d="M 188.648438 96.101562 C 188.714844 88.601562 190.167969 81.601562 193 75.101562 C 195.832031 68.601562 199.765625 62.917969 204.800781 58.050781 C 209.832031 53.183594 215.632812 49.433594 222.199219 46.800781 L 222.199219 40.398438 C 216.433594 42.433594 211.132812 45.265625 206.300781 48.898438 C 201.5 52.5 197.332031 56.734375 193.800781 61.601562 C 190.265625 66.5 187.535156 71.851562 185.601562 77.648438 C 183.667969 83.484375 182.683594 89.632812 182.648438 96.101562 C 182.683594 102.566406 183.667969 108.699219 185.601562 114.5 C 187.535156 120.332031 190.265625 125.699219 193.800781 130.601562 C 197.332031 135.464844 201.515625 139.699219 206.351562 143.300781 C 211.148438 146.933594 216.433594 149.765625 222.199219 151.800781 L 222.199219 145.398438 C 215.601562 142.765625 209.800781 139.015625 204.800781 134.148438 C 199.765625 129.285156 195.832031 123.601562 193 117.101562 C 190.167969 110.601562 188.714844 103.601562 188.648438 96.101562 "/>
    <path style="stroke:none;fill-rule:evenodd;fill:rgb(30.980392%,76.078431%,72.549020%);fill-opacity:1" d="M 300.699219 96.101562 C 300.667969 89.5 299.648438 83.25 297.648438 77.351562 C 295.617188 71.417969 292.765625 65.984375 289.101562 61.050781 C 285.433594 56.117188 281.117188 51.851562 276.148438 48.25 C 271.183594 44.648438 265.714844 41.882812 259.75 39.949219 L 259.75 46.300781 C 266.582031 48.832031 272.617188 52.535156 277.851562 57.398438 C 283.082031 62.300781 287.183594 68.050781 290.148438 74.648438 C 293.117188 81.285156 294.632812 88.433594 294.699219 96.101562 C 294.632812 103.765625 293.117188 110.917969 290.148438 117.550781 C 287.183594 124.148438 283.082031 129.898438 277.851562 134.800781 C 272.617188 139.699219 266.582031 143.417969 259.75 145.949219 L 259.75 152.25 C 265.714844 150.316406 271.183594 147.550781 276.148438 143.949219 C 281.117188 140.351562 285.433594 136.082031 289.101562 131.148438 C 292.765625 126.214844 295.601562 120.785156 297.601562 114.851562 C 299.632812 108.949219 300.667969 102.699219 300.699219 96.101562 "/>
    <path style="stroke:none;fill-rule:evenodd;fill:rgb(9.411765%,18.823529%,18.823529%);fill-opacity:1" d="M13.027344-33.616211Q12.659180-34.267578 12.460938-35.117188Q12.262695-35.966797 12.262695-37.042969Q12.262695-39.025391 12.999023-40.611328Q13.735352-42.197266 15.052246-43.301758Q16.369141-44.406250 18.139160-45.000977Q19.909180-45.595703 22.004883-45.595703Q23.024414-45.595703 23.774902-45.468262Q24.525391-45.340820 25.205078-45.142578Q25.884766-44.944336 26.606934-44.731934Q27.329102-44.519531 28.291992-44.321289Q29.254883-44.123047 30.557617-43.995605Q31.860352-43.868164 33.729492-43.868164Q35.173828-43.868164 36.250000-43.967285Q37.326172-44.066406 38.289063-44.278809Q39.251953-44.491211 40.214844-44.816895Q41.177734-45.142578 42.338867-45.567383L42.338867-45.057617Q41.574219-44.887695 40.653809-44.377930Q39.733398-43.868164 38.841309-43.174316Q37.949219-42.480469 37.156250-41.701660Q36.363281-40.922852 35.853516-40.243164Q35.513672-39.818359 35.202148-39.294434Q34.890625-38.770508 34.508301-37.920898Q34.125977-37.071289 33.616211-35.754395Q33.106445-34.437500 32.370117-32.426758Q31.633789-30.416016 30.600098-27.569824Q29.566406-24.723633 28.178711-20.843750Q31.180664-21.495117 34.366699-22.316406Q37.552734-23.137695 40.837891-24.213867Q41.942383-27.045898 43.358398-29.736328Q44.774414-32.426758 46.445313-34.791504Q48.116211-37.156250 49.999512-39.138672Q51.882813-41.121094 53.865234-42.551270Q55.847656-43.981445 57.915039-44.774414Q59.982422-45.567383 62.049805-45.567383Q63.239258-45.567383 64.046387-45.298340Q64.853516-45.029297 65.363281-44.547852Q65.873047-44.066406 66.085449-43.400879Q66.297852-42.735352 66.297852-41.914063Q66.297852-39.903320 65.150879-37.949219Q64.003906-35.995117 62.120605-34.196777Q60.237305-32.398438 57.830078-30.784180Q55.422852-29.169922 52.902344-27.867188Q51.061523-26.904297 49.178223-26.083008Q47.294922-25.261719 45.397461-24.525391Q44.547852-22.344727 43.868164-20.135742Q43.188477-17.926758 42.707031-15.731934Q42.225586-13.537109 41.970703-11.413086Q41.715820-9.289063 41.715820-7.306641Q41.715820-5.154297 42.013184-3.794922Q42.310547-2.435547 42.891113-1.656738Q43.471680-0.877930 44.278809-0.580566Q45.085938-0.283203 46.105469-0.283203Q49.985352-0.283203 53.681152-3.794922Q57.376953-7.306641 61.285156-14.188477L62.757813-16.793945L63.494141-16.255859L62.049805-13.650391Q59.897461-9.855469 57.872559-7.065918Q55.847656-4.276367 53.851074-2.463867Q51.854492-0.651367 49.829590 0.226563Q47.804688 1.104492 45.624023 1.104492Q43.330078 1.104492 41.843262 0.212402Q40.356445-0.679688 39.478516-2.166504Q38.600586-3.653320 38.246582-5.621582Q37.892578-7.589844 37.892578-9.713867Q37.892578-12.857422 38.515625-16.156738Q39.138672-19.456055 40.328125-22.769531Q37.071289-21.750000 33.899414-20.971191Q30.727539-20.192383 27.725586-19.569336Q25.686523-14.273438 23.619141-10.379395Q21.551758-6.485352 19.243652-3.936523Q16.935547-1.387695 14.315918-0.141602Q11.696289 1.104492 8.581055 1.104492Q6.400391 1.104492 4.800293 0.552246Q3.200195 0 2.124023-1.005371Q1.047852-2.010742 0.523926-3.384277Q0-4.757813 0-6.428711Q0-8.920898 1.132813-10.804199Q2.265625-12.687500 4.262207-14.089355Q6.258789-15.491211 8.935059-16.482422Q11.611328-17.473633 14.726563-18.181641Q16.369141-18.521484 18.479004-18.917969Q20.588867-19.314453 23.081055-19.795898Q23.987305-22.203125 24.709473-24.086426Q25.431641-25.969727 25.998047-27.456543Q26.564453-28.943359 27.031738-30.090332Q27.499023-31.237305 27.937988-32.186035Q28.376953-33.134766 28.815918-33.941895Q29.254883-34.749023 29.764648-35.541992Q30.302734-36.391602 31.024902-37.354492Q31.747070-38.317383 32.639160-39.322754Q33.531250-40.328125 34.564941-41.291016Q35.598633-42.253906 36.788086-43.075195Q34.862305-42.480469 32.879883-42.140625Q30.897461-41.800781 29.283203-41.800781Q27.782227-41.800781 26.295410-42.083984Q24.808594-42.367188 23.435059-42.707031Q22.061523-43.046875 20.872070-43.330078Q19.682617-43.613281 18.804688-43.613281Q17.728516-43.613281 16.751465-43.145996Q15.774414-42.678711 15.038086-41.814941Q14.301758-40.951172 13.876953-39.747559Q13.452148-38.543945 13.452148-37.071289Q13.452148-35.372070 14.018555-34.182617L13.027344-33.616211M8.184570 0Q9.742188 0 11.016602-0.325684Q12.291016-0.651367 13.409668-1.458496Q14.528320-2.265625 15.547852-3.610840Q16.567383-4.956055 17.643555-7.023438Q18.719727-9.090820 19.923340-11.922852Q21.126953-14.754883 22.571289-18.521484Q20.447266-18.068359 18.521484-17.700195Q16.595703-17.332031 14.896484-16.935547Q12.149414-16.312500 9.685547-15.491211Q7.221680-14.669922 5.352539-13.437988Q3.483398-12.206055 2.393066-10.478516Q1.302734-8.750977 1.302734-6.315430Q1.302734-4.956055 1.713379-3.794922Q2.124023-2.633789 2.973633-1.798340Q3.823242-0.962891 5.111816-0.481445Q6.400391 0 8.184570 0M62.389648-44.491211Q60.265625-44.491211 58.042480-43.018555Q55.819336-41.545898 53.666992-39.039551Q51.514648-36.533203 49.546387-33.177246Q47.578125-29.821289 46.020508-26.083008Q47.634766-26.734375 49.234863-27.470703Q50.834961-28.207031 52.392578-29.028320Q54.799805-30.274414 57.079590-31.775391Q59.359375-33.276367 61.143555-34.933105Q62.927734-36.589844 64.018066-38.345703Q65.108398-40.101563 65.108398-41.857422Q65.108398-43.075195 64.485352-43.783203Q63.862305-44.491211 62.389648-44.491211Z" transform="matrix(1,0,0,1,208,119)" data-str-tmatrix="1,0,0,1,216.3,116.55" data-str-color="rgb(24,48,48)" data-str-text="H" data-str-default_text="Enter Text" data-str-fontsize="58" data-str-font_family="Petit Formal Script" data-str-hastextedit="true" data-str-fonticons="true" data-str-bold="false" data-str-italic="false" data-lyt_name="init_1"/>
  </g>
  <g id="surface4">
    <text style="fill:rgb(24,48,48)" font-family="Noto Sans" font-size="47" transform="matrix(1,0,0,1,118,207.5)" xml:space="preserve"><![CDATA[HELP TECH]]></text>
    <text style="fill:rgb(79,193,184)" font-family="Albertus Medium" font-size="23" transform="matrix(1,0,0,1,139,247)" xml:space="preserve"><![CDATA[SISTEMAS MÉDICOS]]></text>
  </g>
</svg>